<?xml version="1.0" encoding="UTF-8" standalone="no"?>
<svg
   xmlns:dc="http://purl.org/dc/elements/1.1/"
   xmlns:cc="http://creativecommons.org/ns#"
   xmlns:rdf="http://www.w3.org/1999/02/22-rdf-syntax-ns#"
   xmlns:svg="http://www.w3.org/2000/svg"
   xmlns="http://www.w3.org/2000/svg"
   xmlns:sodipodi="http://sodipodi.sourceforge.net/DTD/sodipodi-0.dtd"
   xmlns:inkscape="http://www.inkscape.org/namespaces/inkscape"
   width="1000"
   height="950.58051"
   viewBox="0 0 829.55847 1838.6447"
   id="svg2"
   sodipodi:version="0.32"
   inkscape:version="0.92.3 (2405546, 2018-03-11)"
   sodipodi:docname="Star_Television_icon.svg"
   inkscape:output_extension="org.inkscape.output.svg.inkscape"
   version="1.0">
  <metadata
     id="metadata43">
    <rdf:RDF>
      <cc:Work
         rdf:about="">
        <dc:format>image/svg+xml</dc:format>
        <dc:type
           rdf:resource="http://purl.org/dc/dcmitype/StillImage" />
        <dc:title></dc:title>
      </cc:Work>
    </rdf:RDF>
  </metadata>
  <defs
     id="defs41">
    <inkscape:perspective
       sodipodi:type="inkscape:persp3d"
       inkscape:vp_x="0 : 121.25 : 1"
       inkscape:vp_y="0 : 1000 : 0"
       inkscape:vp_z="242.5 : 121.25 : 1"
       inkscape:persp3d-origin="121.25 : 80.833333 : 1"
       id="perspective45" />
  </defs>
  <sodipodi:namedview
     inkscape:window-height="705"
     inkscape:window-width="1366"
     inkscape:pageshadow="2"
     inkscape:pageopacity="0.0"
     guidetolerance="10.0"
     gridtolerance="10.0"
     objecttolerance="10.0"
     borderopacity="1.0"
     bordercolor="#666666"
     pagecolor="#ffffff"
     id="base"
     showgrid="false"
     inkscape:zoom="0.47628866"
     inkscape:cx="75.119279"
     inkscape:cy="524.97068"
     inkscape:window-x="-8"
     inkscape:window-y="-8"
     inkscape:current-layer="svg2"
     inkscape:window-maximized="1" />
  <g
     id="g2418"
     transform="matrix(22.914744,0,0,22.914744,-2976.0529,-1304.6853)"
     style="fill:#000000">
    <g
       id="g4"
       style="fill:#000000;fill-rule:evenodd;stroke:none;stroke-width:1;stroke-linecap:butt;stroke-linejoin:miter;stroke-dasharray:none"
       transform="translate(2.85156,87.2139)" />
    <g
       id="g8"
       style="fill:#000000;fill-rule:evenodd;stroke:none;stroke-width:1;stroke-linecap:butt;stroke-linejoin:miter;stroke-dasharray:none"
       transform="translate(25.1045,87.6416)" />
    <g
       id="g12"
       style="fill:#000000;fill-rule:evenodd;stroke:none;stroke-width:1;stroke-linecap:butt;stroke-linejoin:miter;stroke-dasharray:none"
       transform="translate(50.46,87.1064)" />
    <g
       id="g16"
       style="fill:#000000;fill-rule:evenodd;stroke:none;stroke-width:1;stroke-linecap:butt;stroke-linejoin:miter;stroke-dasharray:none"
       transform="translate(80.3076,87.6416)" />
    <g
       id="g20"
       style="fill:#000000;fill-rule:evenodd;stroke:none;stroke-width:1;stroke-linecap:butt;stroke-linejoin:miter;stroke-dasharray:none"
       transform="translate(121.925,137.067)">
      <path
         id="path22"
         d="M 0,0.108 C 0,0.108 0,0 0,0 0,0 0,0.108 0,0.108 Z"
         inkscape:connector-curvature="0"
         style="fill:#000000" />
    </g>
    <g
       id="g24"
       style="fill:#000000;fill-rule:evenodd;stroke:none;stroke-width:1;stroke-linecap:butt;stroke-linejoin:miter;stroke-dasharray:none"
       transform="translate(121.925,87.6416)">
      <path
         id="path26"
         d="m 0,49.4254 c 0,0 0,0.108 0,0.108 0,0 26.104,-18.937 26.104,-18.937 0,0 25.997,18.937 25.997,18.937 0,0 -9.95,-30.598 -9.95,-30.598 0,0 26.105,-18.9354 26.105,-18.9354 0,0 -12.089,4.0654 -12.089,4.0654 -9.522,3.958 -18.295,8.772 -26.426,14.656 -8.023,5.778 -15.084,12.304 -21.29,19.471 -4.386,4.922 -7.168,8.559 -8.451,11.233 z"
         inkscape:connector-curvature="0"
         style="fill:#000000" />
    </g>
    <g
       id="g28"
       style="fill:#000000;fill-rule:evenodd;stroke:none;stroke-width:1;stroke-linecap:butt;stroke-linejoin:miter;stroke-dasharray:none"
       transform="translate(105.771,56.9365)">
      <path
         id="path30"
         d="m 26.103,49.6405 c 12.624,-6.098 25.891,-11.1258 39.799,-14.87 7.382,-1.9257 13.479,-3.3174 18.508,-4.0654 0,0 -32.202,0 -32.202,0 0,0 -9.95,-30.7051 -9.95,-30.7051 0,0 -9.95,30.7051 -9.95,30.7051 0,0 -32.308,0 -32.308,0 0,0 26.103,18.9354 26.103,18.9354 z"
         inkscape:connector-curvature="0"
         style="fill:#000000" />
    </g>
    <g
       id="g32"
       style="fill:#000000;fill-rule:evenodd;stroke:none;stroke-width:1;stroke-linecap:butt;stroke-linejoin:miter;stroke-dasharray:none"
       transform="translate(175.203,135.249)" />
    <g
       id="g36"
       style="fill:#000000;fill-rule:evenodd;stroke:none;stroke-width:1;stroke-linecap:butt;stroke-linejoin:miter;stroke-dasharray:none"
       transform="translate(176.915,135.249)" />
  </g>
</svg>
